<?xml version="1.0" encoding="UTF-8" standalone="no"?>
<svg
   xmlns:dc="http://purl.org/dc/elements/1.1/"
   xmlns:cc="http://creativecommons.org/ns#"
   xmlns:rdf="http://www.w3.org/1999/02/22-rdf-syntax-ns#"
   xmlns:svg="http://www.w3.org/2000/svg"
   xmlns="http://www.w3.org/2000/svg"
   xmlns:sodipodi="http://sodipodi.sourceforge.net/DTD/sodipodi-0.dtd"
   xmlns:inkscape="http://www.inkscape.org/namespaces/inkscape"
   width="64"
   height="64"
   viewBox="0 0 64 64"
   class="bi bi-input-cursor"
   version="1.1"
   id="svg6"
   sodipodi:docname="object_quickcustomerprice.svg"
   inkscape:export-filename="/home/john/WWW/dolibarr/htdocs/custom/quickcustomerprice/img/logo quickcustomerprice.png"
   inkscape:export-xdpi="6144"
   inkscape:export-ydpi="6144"
   inkscape:version="0.92.5 (2060ec1f9f, 2020-04-08)"
   style="fill:currentColor">
  <metadata
     id="metadata12">
    <rdf:RDF>
      <cc:Work
         rdf:about="">
        <dc:format>image/svg+xml</dc:format>
        <dc:type
           rdf:resource="http://purl.org/dc/dcmitype/StillImage" />
        <dc:title></dc:title>
      </cc:Work>
    </rdf:RDF>
  </metadata>
  <defs
     id="defs10" />
  <sodipodi:namedview
     pagecolor="#505050"
     bordercolor="#ffffff"
     borderopacity="1"
     objecttolerance="10"
     gridtolerance="10"
     guidetolerance="10"
     inkscape:pageopacity="0"
     inkscape:pageshadow="2"
     inkscape:window-width="1920"
     inkscape:window-height="1011"
     id="namedview8"
     showgrid="false"
     inkscape:zoom="8"
     inkscape:cx="50.875921"
     inkscape:cy="22.093978"
     inkscape:window-x="1920"
     inkscape:window-y="0"
     inkscape:window-maximized="1"
     inkscape:current-layer="svg6" />
  <path
     d="m 39.99806,20.40532 h 15.990384 a 3.9975963,3.9975963 0 0 1 3.997597,3.997596 v 15.990385 a 3.9975963,3.9975963 0 0 1 -3.997597,3.997596 H 39.99806 v 3.997596 h 15.990384 a 7.9951924,7.9951924 0 0 0 7.995193,-7.995192 V 24.402916 A 7.9951924,7.9951924 0 0 0 55.988444,16.407723 H 39.99806 Z m -15.990386,0 V 16.407723 H 8.0172894 A 7.9951924,7.9951924 0 0 0 0.02209709,24.402916 V 40.393301 A 7.9951924,7.9951924 0 0 0 8.0172894,48.388493 H 24.007674 V 44.390897 H 8.0172894 A 3.9975963,3.9975963 0 0 1 4.0196933,40.393301 V 24.402916 A 3.9975963,3.9975963 0 0 1 8.0172894,20.40532 Z"
     id="path2"
     style="fill:#00384e;fill-opacity:1;stroke-width:3.99759626"
     inkscape:connector-curvature="0" />
  <path
     d="m 32.002867,4.4149345 a 1.9987981,1.9987981 0 0 1 1.998798,1.9987981 V 58.382484 a 1.9987981,1.9987981 0 0 1 -3.997596,0 V 6.4137326 a 1.9987981,1.9987981 0 0 1 1.998798,-1.9987981 z"
     id="path4"
     style="fill:#cb4f24;fill-opacity:1;fill-rule:evenodd;stroke-width:3.99759626"
     inkscape:connector-curvature="0" />
</svg>
